HIERARCHY
ROOT Hips
{
	OFFSET 0.000000 97.167313 0.000000
	CHANNELS 6 Xposition Yposition Zposition Xrotation Yrotation Zrotation
	JOINT Spine
	{
		OFFSET 0.000000 13.784798 0.064400
		CHANNELS 3 Xrotation Yrotation Zrotation
		JOINT Spine1
		{
			OFFSET 0.000000 12.037903 0.404700
			CHANNELS 3 Xrotation Yrotation Zrotation
			JOINT Spine2
			{
				OFFSET 0.000000 17.795601 0.420200
				CHANNELS 3 Xrotation Yrotation Zrotation
				JOINT Neck
				{
					OFFSET 0.000000 39.131302 11.954600
					CHANNELS 3 Xrotation Yrotation Zrotation
					JOINT Head
					{
						OFFSET 0.000000 14.456192 15.627699
						CHANNELS 3 Xrotation Yrotation Zrotation
						JOINT HeadTop_End
						{
							OFFSET 0.000000 15.703506 7.603401
							CHANNELS 3 Xrotation Yrotation Zrotation
							End Site
							{
								OFFSET 0.000000 17.447403 0.000000
							}
						}
					}
				}
				JOINT LeftShoulder
				{
					OFFSET 17.399500 24.608795 1.168800
					CHANNELS 3 Xrotation Yrotation Zrotation
					JOINT LeftArm
					{
						OFFSET 18.980635 5.765305 1.818600
						CHANNELS 3 Xrotation Yrotation Zrotation
						JOINT LeftForeArm
						{
							OFFSET 49.290169 0.000000 0.000000
							CHANNELS 3 Xrotation Yrotation Zrotation
							JOINT LeftHand
							{
								OFFSET 31.562012 0.000000 0.000000
								CHANNELS 3 Xrotation Yrotation Zrotation
								JOINT LeftHandThumb1
								{
									OFFSET 6.133995 -4.388519 7.076070
									CHANNELS 3 Xrotation Yrotation Zrotation
									JOINT LeftHandThumb2
									{
										OFFSET 6.037666 -3.485840 3.485847
										CHANNELS 3 Xrotation Yrotation Zrotation
										JOINT LeftHandThumb3
										{
											OFFSET 6.496506 -3.750763 3.750761
											CHANNELS 3 Xrotation Yrotation Zrotation
											JOINT LeftHandThumb4
											{
												OFFSET 5.616882 -3.242905 3.242910
												CHANNELS 3 Xrotation Yrotation Zrotation
												End Site
												{
													OFFSET -1.254608 7.132141 0.375429
												}
											}
										}
									}
								}
								JOINT LeftHandPinky1
								{
									OFFSET 18.920792 -0.453171 -11.426712
									CHANNELS 3 Xrotation Yrotation Zrotation
									JOINT LeftHandPinky2
									{
										OFFSET 4.919586 0.000000 0.000000
										CHANNELS 3 Xrotation Yrotation Zrotation
										JOINT LeftHandPinky3
										{
											OFFSET 5.233047 0.000000 0.000000
											CHANNELS 3 Xrotation Yrotation Zrotation
											JOINT LeftHandPinky4
											{
												OFFSET 5.571716 0.000000 0.000000
												CHANNELS 3 Xrotation Yrotation Zrotation
												End Site
												{
													OFFSET -3.459808 4.342407 -0.466164
												}
											}
										}
									}
								}
								JOINT LeftHandRing1
								{
									OFFSET 22.726120 -0.094986 -6.500475
									CHANNELS 3 Xrotation Yrotation Zrotation
									JOINT LeftHandRing2
									{
										OFFSET 6.408615 0.000000 0.000000
										CHANNELS 3 Xrotation Yrotation Zrotation
										JOINT LeftHandRing3
										{
											OFFSET 6.150223 0.000000 0.000000
											CHANNELS 3 Xrotation Yrotation Zrotation
											JOINT LeftHandRing4
											{
												OFFSET 6.145386 0.000000 0.000000
												CHANNELS 3 Xrotation Yrotation Zrotation
												End Site
												{
													OFFSET -3.671402 4.923981 -0.202372
												}
											}
										}
									}
								}
								JOINT LeftHandMiddle1
								{
									OFFSET 23.373947 0.000000 0.000001
									CHANNELS 3 Xrotation Yrotation Zrotation
									JOINT LeftHandMiddle2
									{
										OFFSET 6.996567 0.000000 0.000000
										CHANNELS 3 Xrotation Yrotation Zrotation
										JOINT LeftHandMiddle3
										{
											OFFSET 7.015945 0.000000 0.000000
											CHANNELS 3 Xrotation Yrotation Zrotation
											JOINT LeftHandMiddle4
											{
												OFFSET 7.721573 0.000000 0.000000
												CHANNELS 3 Xrotation Yrotation Zrotation
												End Site
												{
													OFFSET -4.651108 6.158463 0.251582
												}
											}
										}
									}
								}
								JOINT LeftHandIndex1
								{
									OFFSET 21.310577 -0.490082 6.209344
									CHANNELS 3 Xrotation Yrotation Zrotation
									JOINT LeftHandIndex2
									{
										OFFSET 7.536453 0.000000 0.000000
										CHANNELS 3 Xrotation Yrotation Zrotation
										JOINT LeftHandIndex3
										{
											OFFSET 7.512344 0.000000 0.000000
											CHANNELS 3 Xrotation Yrotation Zrotation
											JOINT LeftHandIndex4
											{
												OFFSET 10.212402 0.000000 0.000001
												CHANNELS 3 Xrotation Yrotation Zrotation
												End Site
												{
													OFFSET -5.180801 8.690506 1.388433
												}
											}
										}
									}
								}
							}
						}
					}
				}
				JOINT RightShoulder
				{
					OFFSET -17.399500 24.608795 1.168800
					CHANNELS 3 Xrotation Yrotation Zrotation
					JOINT RightArm
					{
						OFFSET -18.980635 5.765305 1.818600
						CHANNELS 3 Xrotation Yrotation Zrotation
						JOINT RightForeArm
						{
							OFFSET -49.290169 0.000000 0.000000
							CHANNELS 3 Xrotation Yrotation Zrotation
							JOINT RightHand
							{
								OFFSET -31.562012 0.000000 0.000000
								CHANNELS 3 Xrotation Yrotation Zrotation
								JOINT RightHandThumb1
								{
									OFFSET -6.133995 -4.388519 7.076070
									CHANNELS 3 Xrotation Yrotation Zrotation
									JOINT RightHandThumb2
									{
										OFFSET -6.037666 -3.485840 3.485847
										CHANNELS 3 Xrotation Yrotation Zrotation
										JOINT RightHandThumb3
										{
											OFFSET -6.496506 -3.750763 3.750761
											CHANNELS 3 Xrotation Yrotation Zrotation
											JOINT RightHandThumb4
											{
												OFFSET -5.616882 -3.242905 3.242910
												CHANNELS 3 Xrotation Yrotation Zrotation
												End Site
												{
													OFFSET 1.254608 7.132141 0.375429
												}
											}
										}
									}
								}
								JOINT RightHandIndex1
								{
									OFFSET -21.310577 -0.490082 6.209344
									CHANNELS 3 Xrotation Yrotation Zrotation
									JOINT RightHandIndex2
									{
										OFFSET -7.536453 0.000000 0.000000
										CHANNELS 3 Xrotation Yrotation Zrotation
										JOINT RightHandIndex3
										{
											OFFSET -7.512344 0.000000 0.000000
											CHANNELS 3 Xrotation Yrotation Zrotation
											JOINT RightHandIndex4
											{
												OFFSET -10.212402 0.000000 0.000001
												CHANNELS 3 Xrotation Yrotation Zrotation
												End Site
												{
													OFFSET 5.180801 8.690506 1.388433
												}
											}
										}
									}
								}
								JOINT RightHandMiddle1
								{
									OFFSET -23.373947 0.000000 0.000001
									CHANNELS 3 Xrotation Yrotation Zrotation
									JOINT RightHandMiddle2
									{
										OFFSET -6.996567 0.000000 0.000000
										CHANNELS 3 Xrotation Yrotation Zrotation
										JOINT RightHandMiddle3
										{
											OFFSET -7.015945 0.000000 0.000000
											CHANNELS 3 Xrotation Yrotation Zrotation
											JOINT RightHandMiddle4
											{
												OFFSET -7.721573 0.000000 0.000000
												CHANNELS 3 Xrotation Yrotation Zrotation
												End Site
												{
													OFFSET 4.651108 6.158463 0.251582
												}
											}
										}
									}
								}
								JOINT RightHandRing1
								{
									OFFSET -22.726120 -0.094986 -6.500475
									CHANNELS 3 Xrotation Yrotation Zrotation
									JOINT RightHandRing2
									{
										OFFSET -6.408615 0.000000 0.000000
										CHANNELS 3 Xrotation Yrotation Zrotation
										JOINT RightHandRing3
										{
											OFFSET -6.150223 0.000000 0.000000
											CHANNELS 3 Xrotation Yrotation Zrotation
											JOINT RightHandRing4
											{
												OFFSET -6.145386 0.000000 0.000000
												CHANNELS 3 Xrotation Yrotation Zrotation
												End Site
												{
													OFFSET 3.671402 4.923981 -0.202372
												}
											}
										}
									}
								}
								JOINT RightHandPinky1
								{
									OFFSET -18.920792 -0.453171 -11.426712
									CHANNELS 3 Xrotation Yrotation Zrotation
									JOINT RightHandPinky2
									{
										OFFSET -4.919586 0.000000 0.000000
										CHANNELS 3 Xrotation Yrotation Zrotation
										JOINT RightHandPinky3
										{
											OFFSET -5.233047 0.000000 0.000000
											CHANNELS 3 Xrotation Yrotation Zrotation
											JOINT RightHandPinky4
											{
												OFFSET -5.571716 0.000000 0.000000
												CHANNELS 3 Xrotation Yrotation Zrotation
												End Site
												{
													OFFSET 3.459808 4.342407 -0.466164
												}
											}
										}
									}
								}
							}
						}
					}
				}
			}
		}
	}
	JOINT LeftUpLeg
	{
		OFFSET 19.899099 -7.885101 -3.429500
		CHANNELS 3 Xrotation Yrotation Zrotation
		JOINT LeftLeg
		{
			OFFSET 1.745560 -36.997807 10.304700
			CHANNELS 3 Xrotation Yrotation Zrotation
			JOINT LeftFoot
			{
				OFFSET -1.745558 -29.803308 -13.615400
				CHANNELS 3 Xrotation Yrotation Zrotation
				JOINT LeftToeBase
				{
					OFFSET 1.181900 -18.539904 15.226099
					CHANNELS 3 Xrotation Yrotation Zrotation
					JOINT LeftToe_End
					{
						OFFSET -0.863701 1.402801 16.534700
						CHANNELS 3 Xrotation Yrotation Zrotation
						End Site
						{
							OFFSET 0.000000 16.616566 0.000000
						}
					}
				}
			}
		}
	}
	JOINT RightUpLeg
	{
		OFFSET -19.899099 -7.885101 -3.429500
		CHANNELS 3 Xrotation Yrotation Zrotation
		JOINT RightLeg
		{
			OFFSET -1.745560 -36.997807 10.304700
			CHANNELS 3 Xrotation Yrotation Zrotation
			JOINT RightFoot
			{
				OFFSET 1.745558 -29.803308 -13.615400
				CHANNELS 3 Xrotation Yrotation Zrotation
				JOINT RightToeBase
				{
					OFFSET -1.181900 -18.539904 15.226099
					CHANNELS 3 Xrotation Yrotation Zrotation
					JOINT RightToe_End
					{
						OFFSET 0.863701 1.402801 16.534700
						CHANNELS 3 Xrotation Yrotation Zrotation
						End Site
						{
							OFFSET 0.000000 16.616566 0.000000
						}
					}
				}
			}
		}
	}
}
MOTION
Frames: 5
Frame Time: 0.033333
1.620863 85.534439 -98.729965 -2.207324 2.463603 2.431872 6.624601 -2.481225 -0.198695 2.934852 -0.811567 -1.354604 2.964732 -0.746204 -1.329444 -0.454004 -0.799804 3.311160 -18.396394 0.451281 -3.431728 -0.000001 0.000000 -0.000000 0.575627 -0.827663 -9.114504 -0.357117 -13.689473 -59.280325 0.000134 -80.746544 0.000139 -127.202397 8.316296 14.097890 17.322219 -37.414000 18.619065 -12.533891 8.749659 -5.074208 -12.770407 4.523662 14.745204 -0.000002 0.000002 -0.000001 -2.305440 4.694509 -62.624420 3.693088 5.439852 -68.323004 0.099184 -1.074544 10.546475 -0.000001 -0.000001 -0.000002 -2.632398 5.165364 -67.562578 4.126260 5.591919 -72.827329 0.000040 0.021513 -0.209959 0.000000 -0.000001 -0.000000 -6.730871 3.638983 -68.429623 3.552731 5.382209 -66.834781 0.082044 -0.978128 9.590506 0.000000 0.000001 0.000007 -8.304945 2.722309 -67.324075 3.992661 5.549063 -71.451121 0.198059 -1.511911 14.925331 -0.000001 -0.000002 -0.000001 8.074210 16.041773 -3.181128 6.912396 11.160874 62.196782 0.000161 105.932628 -0.000134 -22.414611 -16.113403 32.045950 61.334327 30.777526 -12.521078 -16.865141 -36.773540 -14.662266 -7.388835 -51.233201 -42.021434 0.000002 -0.000002 0.000001 -2.520373 4.938610 18.299291 1.715298 -3.611924 50.794324 5.682261 -4.543186 102.729146 -0.000000 -0.000001 0.000001 9.149398 -8.657912 71.635427 6.185879 -4.399631 109.182357 4.857821 -4.652855 92.471937 0.000000 0.000001 -0.000001 5.893622 -7.437629 74.427335 4.024123 -4.614021 82.178944 0.984465 -2.865618 37.913458 -0.000001 -0.000006 -0.000005 7.653950 -7.531532 79.885100 1.640498 -3.549735 49.596708 3.827090 -4.582758 79.721838 0.000001 -0.000004 0.000002 -38.947135 6.834503 -3.914166 17.749607 3.817108 0.850193 2.636515 -0.939761 -10.560838 -0.451328 -0.000004 -0.000000 -0.000002 0.000001 -0.000000 10.069220 -12.403705 5.857639 30.533408 3.915779 -4.349486 -32.336793 2.925651 -5.723924 -7.326770 0.000001 -0.000000 -0.000000 -0.000000 -0.000000 
1.479593 85.468521 -101.758743 -2.702839 2.657253 1.754714 7.176804 -2.584999 0.562240 3.184801 -0.856248 -1.224811 3.215255 -0.791064 -1.198998 -0.407763 -0.788937 3.320927 -18.401669 0.602712 -3.454736 -0.000001 0.000000 0.000000 0.575628 -0.827663 -9.114503 -0.357120 -13.689472 -59.280325 0.000124 -80.746551 0.000128 -127.570052 8.662925 14.170660 17.322215 -37.414011 18.619073 -12.533891 8.749659 -5.074200 -12.770410 4.523660 14.745207 -0.000001 0.000001 -0.000002 -2.305436 4.694506 -62.624413 3.693086 5.439851 -68.323017 0.099187 -1.074544 10.546472 -0.000001 -0.000006 -0.000001 -2.632400 5.165364 -67.562572 4.126267 5.591920 -72.827322 0.000046 0.021513 -0.209964 0.000001 0.000002 0.000005 -6.730871 3.638980 -68.429616 3.552730 5.382211 -66.834781 0.082042 -0.978131 9.590507 -0.000001 -0.000002 0.000004 -8.304945 2.722310 -67.324082 3.992656 5.549061 -71.451121 0.198061 -1.511911 14.925329 -0.000003 -0.000001 0.000003 8.074211 16.041775 -3.181127 6.912393 11.160878 62.196789 0.000140 105.932628 -0.000120 -22.207988 -16.392495 31.735740 61.334320 30.777526 -12.521086 -16.865146 -36.773537 -14.662265 -7.388843 -51.233205 -42.021431 -0.000000 -0.000003 0.000002 -2.520374 4.938609 18.299293 1.715296 -3.611922 50.794327 5.682261 -4.543185 102.729153 -0.000001 -0.000003 -0.000004 9.149397 -8.657907 71.635420 6.185881 -4.399631 109.182363 4.857821 -4.652856 92.471937 0.000002 -0.000001 -0.000002 5.893621 -7.437626 74.427335 4.024124 -4.614020 82.178944 0.984467 -2.865621 37.913458 -0.000003 0.000000 -0.000005 7.653949 -7.531531 79.885107 1.640496 -3.549730 49.596705 3.827090 -4.582756 79.721838 0.000002 -0.000000 0.000002 -39.281429 5.349353 -2.307243 20.339045 3.862189 0.939494 -0.673803 0.943017 -14.923806 -0.329393 0.000001 -0.000001 0.000000 0.000002 -0.000001 9.640132 -12.740633 7.196284 29.370097 5.036695 -4.297749 -33.451121 3.169188 -6.895532 -3.209093 -0.000000 0.000001 -0.000000 0.000000 0.000000 
1.389398 86.038597 -104.798340 -3.074969 3.266299 1.097461 7.761719 -3.115744 1.331302 3.301506 -1.016978 -1.152369 3.332070 -0.951404 -1.125493 -0.362501 -0.753071 3.345487 -17.999888 0.745850 -2.972902 -0.000000 -0.000000 -0.000000 0.575628 -0.827663 -9.114504 -0.357121 -13.689471 -59.280325 0.000143 -80.746551 0.000115 -127.845951 8.951676 14.227077 17.322215 -37.414004 18.619068 -12.533891 8.749658 -5.074205 -12.770408 4.523659 14.745212 -0.000000 0.000002 -0.000002 -2.305433 4.694504 -62.624420 3.693091 5.439855 -68.323011 0.099192 -1.074542 10.546473 -0.000001 -0.000001 -0.000002 -2.632397 5.165365 -67.562578 4.126259 5.591919 -72.827329 0.000044 0.021510 -0.209961 -0.000001 0.000001 0.000002 -6.730871 3.638980 -68.429616 3.552732 5.382212 -66.834781 0.082041 -0.978129 9.590510 -0.000001 0.000001 0.000004 -8.304941 2.722312 -67.324082 3.992659 5.549064 -71.451121 0.198059 -1.511909 14.925333 -0.000001 0.000003 0.000001 8.074210 16.041775 -3.181128 6.912400 11.160864 62.196748 0.000161 105.932628 -0.000115 -22.054819 -16.600604 31.474164 61.334320 30.777526 -12.521083 -16.865137 -36.773540 -14.662263 -7.388844 -51.233205 -42.021438 -0.000000 -0.000000 -0.000002 -2.520368 4.938611 18.299291 1.715295 -3.611924 50.794317 5.682261 -4.543192 102.729153 -0.000001 -0.000003 -0.000002 9.149400 -8.657915 71.635420 6.185882 -4.399628 109.182357 4.857823 -4.652854 92.471937 -0.000002 0.000000 -0.000009 5.893628 -7.437629 74.427335 4.024128 -4.614020 82.178944 0.984470 -2.865622 37.913455 -0.000002 -0.000003 0.000002 7.653948 -7.531532 79.885107 1.640494 -3.549736 49.596705 3.827089 -4.582753 79.721845 0.000001 -0.000001 0.000004 -40.037305 4.024747 -1.669700 26.795940 4.046874 1.357104 -3.154010 1.541745 -14.993008 -0.179944 0.000006 0.000003 -0.000000 0.000000 -0.000002 8.296529 -12.728338 8.175175 28.180677 4.629776 -4.365897 -32.083154 2.983729 -6.801420 -0.866419 -0.000002 0.000003 -0.000000 0.000000 -0.000000 
1.350952 86.864639 -107.909851 -3.376927 3.849885 0.559610 8.317685 -3.616798 1.970750 3.292466 -1.162019 -1.137714 3.323033 -1.096042 -1.110133 -0.317870 -0.725019 3.380299 -17.382451 0.834833 -2.314236 -0.000000 0.000000 0.000000 0.575628 -0.827663 -9.114503 -0.357117 -13.689472 -59.280325 0.000127 -80.746551 0.000109 -128.000873 9.122048 14.258225 17.322217 -37.414000 18.619062 -12.533890 8.749660 -5.074192 -12.770411 4.523663 14.745205 0.000002 0.000002 -0.000002 -2.305437 4.694507 -62.624420 3.693087 5.439855 -68.323011 0.099188 -1.074547 10.546474 0.000002 -0.000004 0.000000 -2.632397 5.165366 -67.562578 4.126261 5.591917 -72.827329 0.000044 0.021512 -0.209961 -0.000004 0.000000 0.000002 -6.730870 3.638986 -68.429616 3.552729 5.382209 -66.834781 0.082042 -0.978130 9.590507 -0.000000 -0.000002 0.000004 -8.304939 2.722315 -67.324075 3.992659 5.549066 -71.451114 0.198061 -1.511909 14.925331 -0.000000 0.000003 0.000001 8.074212 16.041777 -3.181127 6.912395 11.160884 62.196802 0.000133 105.932628 -0.000126 -21.968520 -16.716374 31.319368 61.334320 30.777526 -12.521086 -16.865146 -36.773544 -14.662265 -7.388831 -51.233205 -42.021434 0.000001 -0.000002 -0.000002 -2.520370 4.938610 18.299293 1.715295 -3.611925 50.794321 5.682261 -4.543190 102.729146 -0.000000 0.000000 0.000001 9.149400 -8.657911 71.635420 6.185881 -4.399630 109.182357 4.857823 -4.652854 92.471944 0.000001 0.000001 -0.000001 5.893623 -7.437629 74.427328 4.024126 -4.614020 82.178944 0.984467 -2.865626 37.913458 -0.000000 -0.000001 0.000002 7.653952 -7.531533 79.885107 1.640496 -3.549731 49.596705 3.827092 -4.582759 79.721838 -0.000000 -0.000005 -0.000000 -39.972408 4.264026 -1.097346 34.156328 2.966297 1.955556 -4.002238 1.704518 -13.178132 -0.088290 -0.000001 -0.000003 -0.000000 0.000000 -0.000001 5.866706 -12.972997 8.750423 27.836115 4.194593 -4.443791 -29.096585 2.781889 -6.750718 -0.169253 0.000001 -0.000000 -0.000000 0.000000 0.000000 
1.364426 87.867546 -111.045464 -3.767874 4.186126 0.350323 8.791320 -3.964549 2.286009 3.221602 -1.254598 -1.214881 3.252099 -1.187900 -1.186902 -0.273943 -0.706915 3.406176 -16.420280 0.908569 -1.620923 0.000000 0.000000 -0.000000 0.575627 -0.827663 -9.114503 -0.357120 -13.689470 -59.280325 0.000111 -80.746551 0.000131 -127.989494 9.130477 14.252708 17.322215 -37.414004 18.619063 -12.533893 8.749660 -5.074207 -12.770404 4.523658 14.745212 -0.000000 0.000001 -0.000001 -2.305437 4.694509 -62.624420 3.693086 5.439855 -68.323011 0.099189 -1.074544 10.546472 0.000003 -0.000002 0.000001 -2.632400 5.165366 -67.562585 4.126258 5.591916 -72.827322 0.000042 0.021512 -0.209964 -0.000003 -0.000002 0.000005 -6.730875 3.638985 -68.429623 3.552731 5.382210 -66.834781 0.082045 -0.978130 9.590507 0.000002 0.000000 0.000004 -8.304945 2.722313 -67.324075 3.992661 5.549065 -71.451114 0.198057 -1.511908 14.925333 0.000001 0.000001 -0.000001 8.074208 16.041777 -3.181128 6.912392 11.160872 62.196775 0.000132 105.932621 -0.000130 -21.972439 -16.704604 31.310642 61.334320 30.777526 -12.521086 -16.865141 -36.773537 -14.662268 -7.388846 -51.233201 -42.021438 -0.000000 -0.000001 -0.000001 -2.520372 4.938608 18.299293 1.715295 -3.611921 50.794327 5.682260 -4.543187 102.729153 -0.000000 -0.000003 -0.000002 9.149400 -8.657913 71.635413 6.185882 -4.399628 109.182357 4.857823 -4.652855 92.471937 -0.000002 0.000001 -0.000004 5.893625 -7.437624 74.427335 4.024125 -4.614017 82.178944 0.984467 -2.865622 37.913458 -0.000000 0.000001 -0.000003 7.653946 -7.531532 79.885107 1.640493 -3.549737 49.596705 3.827093 -4.582756 79.721845 -0.000000 -0.000003 -0.000003 -38.208823 5.681146 -0.441800 40.455822 1.472214 2.669888 -3.302684 1.630863 -10.214409 -0.053197 -0.000004 0.000006 0.000000 0.000000 -0.000000 3.421519 -12.494736 8.673511 27.069744 3.439457 -4.164340 -25.653400 2.648204 -6.620805 -0.265162 -0.000001 -0.000001 0.000000 -0.000000 0.000000 
